<svg version="1.1" id="Layer_1" xmlns="http://www.w3.org/2000/svg" xmlns:xlink="http://www.w3.org/1999/xlink" x="0px" y="0px"
	 width="100%" viewBox="0 0 256 224" enable-background="new 0 0 256 224" xml:space="preserve">
<path fill="#000000" opacity="1.000000" stroke="none" 
	d="
M147.000000,225.000000 
	C98.000000,225.000000 49.500008,225.000000 1.000006,225.000000 
	C1.000004,150.333344 1.000004,75.666679 1.000002,1.000016 
	C86.333321,1.000011 171.666641,1.000011 257.000000,1.000005 
	C257.000000,75.666649 257.000000,150.333298 257.000000,224.999969 
	C220.500000,225.000000 184.000000,225.000000 147.000000,225.000000 
M127.167572,146.653824 
	C121.415733,151.752319 120.923950,158.460602 121.407738,165.468460 
	C121.867683,172.131027 119.188293,177.318588 114.293289,181.739655 
	C109.531708,186.040237 103.922882,186.352844 97.976677,186.451904 
	C89.064957,186.600388 82.195930,193.687851 82.373688,202.025879 
	C82.553139,210.443222 89.231049,217.272354 97.582047,217.578690 
	C105.240921,217.859634 112.240715,210.685303 112.822433,202.049194 
	C112.978706,199.729172 113.195862,197.386292 113.692284,195.121216 
	C115.191467,188.280762 118.841431,183.429703 126.008270,181.541183 
	C135.065964,179.154434 144.129913,179.017944 153.196579,181.037567 
	C162.333954,183.072937 167.620667,189.857529 167.886841,199.290955 
	C167.942886,201.277435 167.887283,203.321579 168.336472,205.232605 
	C169.912872,211.939209 174.510513,216.022537 180.975128,217.266312 
	C186.765228,218.380295 191.784515,215.925537 195.358475,211.144897 
	C199.360291,205.791962 199.684586,199.995422 196.329803,194.288940 
	C192.760666,188.217819 187.011032,186.046982 180.184219,186.370499 
	C170.570862,186.826080 164.573227,181.721939 160.627121,173.581665 
	C158.717072,169.641418 159.777176,165.373001 159.659393,161.250488 
	C159.425247,153.055771 156.080795,146.692139 148.568283,143.158325 
	C141.097473,139.644150 133.999435,140.615997 127.167572,146.653824 
M210.918335,67.554253 
	C208.113022,71.274979 208.277405,75.624336 208.128021,79.971619 
	C207.792130,89.747101 201.888809,96.895271 192.512650,99.515343 
	C189.363449,100.395363 186.272141,100.271996 183.114136,100.039894 
	C169.914703,99.069786 159.866974,111.267471 163.380249,123.980759 
	C166.010834,133.499893 173.289062,138.504272 184.305878,137.816925 
	C193.032074,137.272491 199.984528,140.100449 204.983780,147.318222 
	C208.187195,151.943207 208.198563,157.292908 208.331772,162.655106 
	C208.495636,169.252365 213.212936,175.006561 219.332657,176.530777 
	C225.964447,178.182526 232.941101,175.551483 236.418228,170.087479 
	C239.919327,164.585785 239.470505,157.584351 235.316345,152.414444 
	C231.809418,148.050018 227.142502,146.450134 221.693726,146.333099 
	C210.594284,146.094711 204.929260,141.468033 202.441376,130.647995 
	C200.743912,123.265587 201.037460,115.786316 202.042755,108.364632 
	C203.210983,99.740120 207.990387,94.058075 216.637421,92.097542 
	C218.715912,91.626282 220.935181,91.772247 223.090195,91.642586 
	C230.807495,91.178253 237.194031,85.954468 238.553207,78.990578 
	C239.838928,72.402931 236.588638,65.643448 230.669373,62.594917 
	C224.284210,59.306446 216.725754,61.008675 210.918335,67.554253 
M52.520653,176.321243 
	C65.869263,178.176300 72.400696,172.720215 72.846962,159.341522 
	C73.302887,145.673004 81.891411,137.591400 95.668755,137.872864 
	C97.167885,137.903488 98.669510,138.050919 100.164726,137.997391 
	C114.388489,137.487991 122.962250,121.823769 115.687729,109.584717 
	C111.168655,101.981598 104.241081,99.530884 95.699036,100.117134 
	C85.444862,100.820900 77.607689,95.938095 74.303711,87.142845 
	C72.935265,83.500015 72.938545,79.656479 72.779175,75.820419 
	C72.436356,67.568626 66.618790,61.679695 58.592602,61.244446 
	C50.337242,60.796776 43.909611,65.516129 42.511406,73.051720 
	C41.020195,81.088531 45.548038,88.387337 53.436028,90.885391 
	C55.887493,91.661758 58.359394,91.586090 60.850250,91.676437 
	C69.879105,92.003914 76.237236,97.105446 78.298683,105.913452 
	C79.861824,112.592354 80.001396,119.341957 79.411842,126.208443 
	C78.245560,139.792084 72.127365,145.857162 58.374775,146.380493 
	C50.456882,146.681793 43.961384,151.661758 42.539909,158.520737 
	C41.004284,165.930542 44.260921,172.111008 52.520653,176.321243 
M164.024719,58.617813 
	C167.784286,54.213963 172.502945,51.811134 178.338455,51.567829 
	C180.661377,51.470974 182.977020,51.128075 185.288254,50.836109 
	C192.246719,49.957100 196.547501,45.768906 198.243225,38.267319 
	C199.473999,32.822594 196.733047,26.483234 191.711609,23.160776 
	C186.171082,19.494858 179.939774,19.676762 174.476913,23.711845 
	C170.151306,26.906908 168.318390,31.189634 168.154633,36.597523 
	C167.788925,48.674671 163.180374,54.754528 152.981216,56.986683 
	C144.074066,58.936062 135.194733,58.681362 126.290680,56.548931 
	C120.552261,55.174633 116.996559,51.663540 114.776619,46.484093 
	C113.242882,42.905643 113.028679,39.067043 112.763077,35.247990 
	C112.274139,28.217505 107.379959,22.555098 100.314796,20.836948 
	C94.910103,19.522602 88.042862,22.545578 84.825752,27.655262 
	C81.107124,33.561497 81.733620,40.891689 86.340355,46.198803 
	C89.967529,50.377434 94.768738,50.997635 99.915657,51.166626 
	C111.261780,51.539154 119.246811,57.625061 120.988083,67.359802 
	C121.595871,70.757713 121.298897,74.323441 121.352379,77.813492 
	C121.576935,92.468056 137.401657,101.590263 150.012772,94.150246 
	C156.523758,90.309029 159.732346,84.308884 159.634613,76.677078 
	C159.555939,70.534782 158.776077,64.247734 164.024719,58.617813 
M136.860306,130.584167 
	C147.433121,132.296692 155.084717,124.677689 152.124359,115.385155 
	C150.451157,110.132980 145.423904,106.539963 139.988556,106.711624 
	C134.675552,106.879417 129.675919,111.044930 128.528870,116.259384 
	C127.239998,122.118576 129.876862,126.999207 136.860306,130.584167 
M193.682053,168.046448 
	C196.803223,162.952850 195.947021,158.098709 192.329178,153.778564 
	C189.509445,150.411484 185.657043,148.857224 181.196335,149.763824 
	C175.636032,150.893875 171.836807,155.014771 171.309723,160.209351 
	C170.728149,165.940933 173.257324,170.555466 178.208420,172.796112 
	C183.452515,175.169357 188.534927,173.779968 193.682053,168.046448 
M185.901794,64.329979 
	C184.741135,64.265732 183.575256,64.097168 182.420731,64.155167 
	C177.221405,64.416382 173.505829,67.002419 171.874619,71.896751 
	C170.297913,76.627480 171.035141,81.210823 174.769958,84.797852 
	C178.407593,88.291550 182.682587,89.495331 187.594208,87.506180 
	C192.327560,85.589226 195.772827,81.157059 195.552109,76.446686 
	C195.277695,70.590439 192.443268,66.389603 185.901794,64.329979 
M109.026978,166.263000 
	C111.196594,156.126511 104.372673,147.774399 95.528069,149.741089 
	C89.815628,151.011307 85.786659,155.580887 85.438042,161.184982 
	C85.120186,166.294846 88.954361,171.698502 94.025200,173.287231 
	C99.722626,175.072281 104.864548,172.855530 109.026978,166.263000 
M103.610840,65.674828 
	C95.617592,62.511570 88.588303,65.274872 86.200447,72.519066 
	C83.877014,79.567848 87.635712,86.180710 95.087669,88.154755 
	C99.919708,89.434776 106.007881,86.572556 108.473465,81.861717 
	C111.299149,76.462852 109.786629,70.813057 103.610840,65.674828 
z"/>
</svg>