<svg version="1.1" id="Layer_1" xmlns="http://www.w3.org/2000/svg" xmlns:xlink="http://www.w3.org/1999/xlink" x="0px" y="0px"
	 width="100%" viewBox="0 0 270 233" enable-background="new 0 0 270 233" xml:space="preserve">
<path fill="#020101" opacity="1.000000" stroke="none" 
	d="
M172.000000,234.000000 
	C114.666672,234.000000 57.833340,234.000000 1.000008,234.000000 
	C1.000005,156.333344 1.000005,78.666679 1.000003,1.000018 
	C90.999992,1.000012 180.999985,1.000012 271.000000,1.000006 
	C271.000000,78.666649 271.000000,156.333298 271.000000,233.999969 
	C238.166672,234.000000 205.333328,234.000000 172.000000,234.000000 
M85.891319,212.731903 
	C86.205826,212.911194 86.520332,213.090469 86.863823,213.172989 
	C86.863823,213.172989 86.770332,213.211212 87.064774,213.851105 
	C93.099205,219.132431 99.698219,219.557953 106.045975,215.019318 
	C106.045975,215.019318 106.065765,215.107712 106.748108,214.979935 
	C108.957924,211.249435 111.828720,207.743973 113.196472,203.726761 
	C114.638939,199.490082 114.646851,194.764984 115.904068,189.938446 
	C118.992477,187.421631 121.706253,183.851898 125.242485,182.593674 
	C134.327057,179.361313 143.797668,179.824615 153.260696,181.668167 
	C160.784012,183.133820 164.782471,187.944321 166.661301,194.809769 
	C167.344193,197.305130 166.938797,200.086456 167.133087,202.729736 
	C167.602890,209.121201 171.050034,213.586639 176.572449,216.423065 
	C181.713699,219.063736 186.886444,218.632385 191.713043,215.497559 
	C197.991455,211.419800 200.578140,204.210022 198.445831,197.200912 
	C196.408859,190.505188 190.378983,186.493652 183.054855,185.866043 
	C178.225388,185.452209 172.894836,184.876938 168.857544,182.532928 
	C161.453857,178.234406 159.315155,170.921463 160.072571,162.331848 
	C161.323898,148.141174 148.726669,137.655670 135.251968,141.201645 
	C126.043236,143.624985 120.192635,151.981110 120.773064,161.881149 
	C121.541008,174.979538 117.424332,181.294662 105.326164,185.671768 
	C104.791466,185.865219 104.407547,186.475449 103.166428,186.991882 
	C102.113075,187.048676 101.059723,187.105453 99.131210,187.012817 
	C91.972755,186.028397 86.307259,188.348434 83.263489,195.077744 
	C80.773415,200.582916 80.689827,206.190964 84.822906,211.139984 
	C84.822906,211.139984 84.725304,211.176773 84.901390,211.703232 
	C85.201653,211.902893 85.501923,212.102554 85.822807,212.192596 
	C85.822807,212.192596 85.712166,212.206757 85.891319,212.731903 
M166.914932,105.909264 
	C166.695221,106.103859 166.613846,106.345116 166.705933,106.711296 
	C166.705933,106.711296 166.622116,106.692993 166.033173,107.027473 
	C164.772980,111.024971 163.512787,115.022476 162.136139,119.653000 
	C162.177628,120.078125 162.219131,120.503250 162.091187,121.658524 
	C162.768539,123.628403 163.445908,125.598274 164.375626,128.455856 
	C164.559280,128.702652 164.742935,128.949448 164.717133,129.307373 
	C164.717133,129.307373 165.049759,129.514023 165.192413,129.958755 
	C165.192413,129.958755 165.565750,130.239395 165.695328,130.757248 
	C165.976608,130.960770 166.257874,131.164307 166.578629,131.430374 
	C166.578629,131.430374 166.640350,131.471130 166.894363,132.081985 
	C170.267822,134.036652 173.641281,135.991318 177.751755,138.295349 
	C179.723679,138.460907 181.755859,139.018372 183.657410,138.726120 
	C193.356323,137.235443 200.374863,141.149399 205.493744,149.488342 
	C205.712509,149.808411 205.931274,150.128464 206.114456,150.732452 
	C206.114456,150.732452 206.351395,150.892883 206.384262,151.541168 
	C206.662415,152.361465 206.940582,153.181763 207.185974,154.889038 
	C207.298584,157.244446 207.411179,159.599869 207.297943,162.683289 
	C208.206192,165.111618 209.114456,167.539932 209.996964,169.995895 
	C209.996964,169.995895 210.029388,169.980072 210.125900,170.655991 
	C216.783188,180.201828 227.306305,179.504257 233.493301,174.356796 
	C241.555527,167.649155 241.819138,158.589066 234.457977,150.501297 
	C234.457977,150.501297 234.398758,150.460114 234.071014,149.898071 
	C230.976974,148.582550 227.975769,146.941330 224.767456,146.026642 
	C219.760132,144.599045 214.612396,143.663956 209.470993,142.475174 
	C209.470993,142.475174 209.413742,142.435471 209.116882,141.955734 
	C208.519547,141.518738 207.922226,141.081726 207.048660,140.939743 
	C207.048660,140.939743 207.345139,140.665115 207.132523,140.095398 
	C206.422287,139.398331 205.712051,138.701248 205.000610,137.999817 
	C205.000610,137.999817 204.997849,137.997025 204.963730,137.356171 
	C204.626709,136.581024 204.289673,135.805893 203.928482,134.320908 
	C203.719696,133.901627 203.510910,133.482346 203.363205,132.262253 
	C200.900299,121.355270 201.616852,110.610672 204.998352,100.000259 
	C204.998352,100.000259 205.004776,100.012718 205.573273,99.689400 
	C207.056900,98.130302 208.540543,96.571198 210.000351,94.997383 
	C210.000351,94.997383 210.010315,95.023056 210.782791,94.905846 
	C215.127258,93.960655 219.477158,93.039459 223.813950,92.060272 
	C226.020462,91.562073 228.203415,90.959518 231.036713,90.161888 
	C241.274246,83.647682 242.731354,72.194458 234.021225,64.962456 
	C234.021225,64.962456 234.296082,64.683693 234.029800,64.058533 
	C230.465195,63.049057 226.900574,62.039577 222.455093,60.979771 
	C220.938400,61.295513 219.421722,61.611259 217.988907,61.980305 
	C217.988907,61.980305 217.932571,61.898430 217.187988,61.909134 
	C216.095139,62.606438 215.002274,63.303738 213.603027,64.538811 
	C212.959381,65.311516 212.315750,66.084221 211.102737,67.212296 
	C210.055222,69.141197 209.007706,71.070099 207.757553,73.637878 
	C207.798447,74.077415 207.839340,74.516953 207.146545,75.400238 
	C206.449417,80.352699 205.752289,85.305161 204.505493,90.353500 
	C204.071198,90.933510 203.636887,91.513512 203.082321,92.101089 
	C203.082321,92.101089 203.101074,92.220108 202.601288,92.474503 
	C202.369888,92.972664 202.138504,93.470833 201.480347,94.149223 
	C201.215866,94.334946 201.041367,94.583771 200.349197,95.025658 
	C199.576874,95.691299 198.804550,96.356949 197.575714,97.099724 
	C197.253250,97.147751 196.991959,97.300468 196.080429,97.721420 
	C194.715027,98.222717 193.349609,98.724014 191.250320,99.218254 
	C190.794296,99.385345 190.338272,99.552429 189.205246,99.497177 
	C188.505539,99.555862 187.805832,99.614555 186.263168,99.388275 
	C184.198608,99.360512 182.134048,99.332748 179.321838,99.160667 
	C177.098083,99.955910 174.874344,100.751152 172.613495,101.581429 
	C172.613495,101.581429 172.572937,101.612366 171.963562,101.782524 
	C170.983902,102.525726 170.004257,103.268929 169.000732,103.997009 
	C169.000732,103.997009 169.009979,104.023132 168.494659,104.112633 
	C168.189926,104.528458 167.885193,104.944275 167.319794,105.462585 
	C167.319794,105.462585 167.273865,105.738884 166.914932,105.909264 
M155.210526,90.177650 
	C155.210526,90.177650 155.236938,90.264984 155.843475,89.969788 
	C156.894165,87.316116 157.944839,84.662453 159.082626,81.273956 
	C159.128677,80.540466 159.174728,79.806984 159.959976,78.731972 
	C159.667389,76.719963 158.909393,74.648659 159.156937,72.705460 
	C160.904175,58.989597 168.317810,52.247746 181.405167,51.789429 
	C185.125717,51.659130 188.786606,49.825035 192.700653,48.738216 
	C192.700653,48.738216 192.799698,48.532440 193.402161,48.290104 
	C194.660324,46.765438 196.150864,45.376614 197.135574,43.692097 
	C200.965530,37.140202 199.565460,29.287380 193.771210,23.852798 
	C188.756989,19.149860 181.511642,18.571531 175.457413,22.417170 
	C175.457413,22.417170 175.380417,22.482466 174.748093,22.685204 
	C168.399689,26.801579 166.743881,32.930367 167.049774,40.649078 
	C167.113037,41.102993 167.176285,41.556908 166.952194,42.680946 
	C164.990662,50.238205 160.610504,54.952816 152.560028,56.487961 
	C143.255646,58.262215 134.153473,57.678322 124.871155,55.702797 
	C124.871155,55.702797 124.685707,55.798286 124.114906,55.288509 
	C117.257584,52.911083 115.040123,47.280296 114.061661,40.835526 
	C113.564766,37.562595 113.602631,34.164036 112.743950,30.999973 
	C111.093475,24.918409 104.732208,20.126842 98.806038,19.969656 
	C91.722298,19.781765 85.302727,23.554857 82.968002,29.328194 
	C78.521019,40.324745 87.062798,52.420494 98.088051,51.954208 
	C100.868759,51.836605 103.800323,51.928303 106.450409,52.675873 
	C116.572739,55.531315 121.615768,63.596333 120.840546,75.279663 
	C120.387825,82.102516 121.678429,88.151016 127.820297,92.171822 
	C127.820297,92.171822 127.715103,92.211311 127.901138,92.740540 
	C128.220551,92.909836 128.539948,93.079132 128.858246,93.162209 
	C128.858246,93.162209 128.777206,93.191643 129.138702,93.797737 
	C138.423462,99.454681 147.812302,98.520226 154.167648,91.168159 
	C154.167648,91.168159 154.271942,91.333778 154.785950,91.132500 
	C154.957687,90.817589 155.129440,90.502678 155.210526,90.177650 
M82.919632,96.875694 
	C76.225983,92.427185 73.542809,86.146164 73.611946,78.173241 
	C73.732880,64.229057 63.502148,57.300774 50.693436,62.349457 
	C42.303150,65.656570 38.787769,75.664139 43.363224,83.417625 
	C46.638088,88.967148 51.292309,91.922012 58.016407,92.099426 
	C70.826309,92.437408 76.822838,97.126900 78.179817,108.862877 
	C79.028458,116.202423 78.791374,123.850098 77.758278,131.178635 
	C76.453178,140.436722 70.819153,144.852280 61.437920,145.753372 
	C59.450661,145.944244 57.439224,145.880859 55.451054,146.065308 
	C48.607876,146.700150 41.996723,153.448715 41.448429,160.292786 
	C40.844250,167.834427 45.463787,174.878220 52.364143,176.936874 
	C63.626259,180.296829 73.783798,172.840302 73.563965,160.820190 
	C73.418434,152.862381 75.675858,146.530228 82.230354,141.796158 
	C87.251244,138.169724 92.895607,138.629318 98.555687,138.809662 
	C107.157700,139.083740 113.218391,135.016312 116.958649,127.513069 
	C120.570374,120.267685 119.649269,113.302139 114.710289,106.935768 
	C110.148346,101.055412 103.979012,99.118866 96.670204,99.143867 
	C92.320831,99.158745 87.967140,97.911247 82.919632,96.875694 
M179.415436,88.473389 
	C188.243286,89.861244 194.691742,85.981972 196.007294,78.492035 
	C197.216309,71.608765 192.874298,65.067207 186.078812,63.534039 
	C179.749893,62.106133 173.152023,65.768936 170.945251,71.935402 
	C168.694901,78.223732 171.658325,84.493896 179.415436,88.473389 
M189.365448,173.018219 
	C197.742508,167.280380 198.520035,156.843918 190.977753,151.376953 
	C186.084763,147.830307 179.276260,148.111633 174.819641,152.044632 
	C170.042114,156.260818 168.980774,162.896835 172.212738,168.344147 
	C175.572449,174.006760 181.447922,175.800156 189.365448,173.018219 
M89.471657,86.115028 
	C90.308746,86.657928 91.098625,87.299202 91.990768,87.727402 
	C96.914894,90.090797 102.387802,89.286575 106.403526,85.668396 
	C110.213699,82.235443 111.647636,76.902428 109.795517,71.978104 
	C107.861366,66.835670 104.030334,63.852001 98.519234,63.477211 
	C93.212624,63.116325 89.136589,65.558640 86.450600,70.018135 
	C83.649551,74.668686 84.685844,80.438950 89.471657,86.115028 
M87.157867,169.113739 
	C92.370186,174.578232 97.680901,175.986572 103.147278,173.353989 
	C108.248032,170.897491 111.198784,165.676422 110.419991,160.348175 
	C109.624695,154.906982 106.627098,151.097275 101.381996,149.505569 
	C96.351753,147.979065 91.695938,149.242035 88.201416,153.177658 
	C84.099945,157.796844 83.948914,163.054382 87.157867,169.113739 
M128.125977,122.746277 
	C131.504410,130.144547 137.212845,133.269684 143.913666,131.389420 
	C150.081268,129.658768 153.949127,124.077530 153.300034,117.845070 
	C152.537674,110.524956 146.464233,105.491760 139.170319,106.135468 
	C131.547653,106.808197 127.112175,113.050049 128.125977,122.746277 
z"/>
<path fill="#F8E48B" opacity="1.000000" stroke="none" 
	d="
M83.267517,97.053497 
	C87.967140,97.911247 92.320831,99.158745 96.670204,99.143867 
	C103.979012,99.118866 110.148346,101.055412 114.710289,106.935768 
	C119.649269,113.302139 120.570374,120.267685 116.958649,127.513069 
	C113.218391,135.016312 107.157700,139.083740 98.555687,138.809662 
	C92.895607,138.629318 87.251244,138.169724 82.230354,141.796158 
	C75.675858,146.530228 73.418434,152.862381 73.563965,160.820190 
	C73.783798,172.840302 63.626259,180.296829 52.364143,176.936874 
	C45.463787,174.878220 40.844250,167.834427 41.448429,160.292786 
	C41.996723,153.448715 48.607876,146.700150 55.451054,146.065308 
	C57.439224,145.880859 59.450661,145.944244 61.437920,145.753372 
	C70.819153,144.852280 76.453178,140.436722 77.758278,131.178635 
	C78.791374,123.850098 79.028458,116.202423 78.179817,108.862877 
	C76.822838,97.126900 70.826309,92.437408 58.016407,92.099426 
	C51.292309,91.922012 46.638088,88.967148 43.363224,83.417625 
	C38.787769,75.664139 42.303150,65.656570 50.693436,62.349457 
	C63.502148,57.300774 73.732880,64.229057 73.611946,78.173241 
	C73.542809,86.146164 76.225983,92.427185 83.267517,97.053497 
z"/>
<path fill="#FAE68D" opacity="1.000000" stroke="none" 
	d="
M103.953384,186.891541 
	C104.407547,186.475449 104.791466,185.865219 105.326164,185.671768 
	C117.424332,181.294662 121.541008,174.979538 120.773064,161.881149 
	C120.192635,151.981110 126.043236,143.624985 135.251968,141.201645 
	C148.726669,137.655670 161.323898,148.141174 160.072571,162.331848 
	C159.315155,170.921463 161.453857,178.234406 168.857544,182.532928 
	C172.894836,184.876938 178.225388,185.452209 183.054855,185.866043 
	C190.378983,186.493652 196.408859,190.505188 198.445831,197.200912 
	C200.578140,204.210022 197.991455,211.419800 191.713043,215.497559 
	C186.886444,218.632385 181.713699,219.063736 176.572449,216.423065 
	C171.050034,213.586639 167.602890,209.121201 167.133087,202.729736 
	C166.938797,200.086456 167.344193,197.305130 166.661301,194.809769 
	C164.782471,187.944321 160.784012,183.133820 153.260696,181.668167 
	C143.797668,179.824615 134.327057,179.361313 125.242485,182.593674 
	C121.706253,183.851898 118.992477,187.421631 115.499443,190.011780 
	C115.094818,190.085098 114.908928,189.916016 114.918747,189.568298 
	C114.054993,187.872147 113.181419,186.523697 111.495506,183.921326 
	C110.720421,186.551086 110.359650,187.775162 109.626755,188.987625 
	C107.487549,188.281189 105.720467,187.586365 103.953384,186.891541 
z"/>
<path fill="#FAE68C" opacity="1.000000" stroke="none" 
	d="
M189.882263,99.719528 
	C190.338272,99.552429 190.794296,99.385345 191.903107,99.396500 
	C193.967880,98.902458 195.379852,98.230164 196.791840,97.557869 
	C196.991959,97.300468 197.253250,97.147751 198.122803,97.036697 
	C199.432220,96.281021 200.194534,95.588371 200.956848,94.895706 
	C201.041367,94.583771 201.215866,94.334946 201.943481,93.924797 
	C202.638107,93.206947 202.869583,92.713531 203.101074,92.220108 
	C203.101074,92.220108 203.082321,92.101089 203.422455,92.049561 
	C204.193451,91.417892 204.624298,90.837753 205.055145,90.257614 
	C205.752289,85.305161 206.449417,80.352699 207.889771,75.186241 
	C209.716660,74.586685 210.800339,74.201118 211.884018,73.815552 
	C211.763062,73.401611 211.642120,72.987663 211.521179,72.573723 
	C210.334183,72.715477 209.147186,72.857239 207.960190,72.999001 
	C209.007706,71.070099 210.055222,69.141197 211.686218,67.242645 
	C214.374756,70.854485 217.859818,74.185974 213.784882,78.667625 
	C209.360291,83.533821 208.961578,87.176071 211.839417,92.368652 
	C211.095871,93.404984 210.553101,94.214020 210.010315,95.023056 
	C210.010315,95.023056 210.000351,94.997383 209.670746,95.041611 
	C207.895691,96.728127 206.450226,98.370422 205.004776,100.012718 
	C205.004776,100.012718 204.998352,100.000259 204.654083,100.109375 
	C202.957809,107.419327 201.064133,114.576736 200.481903,121.839294 
	C200.189880,125.481766 202.286041,129.315704 203.302139,133.063049 
	C203.510910,133.482346 203.719696,133.901627 203.739807,134.897903 
	C204.033356,136.315613 204.515594,137.156311 204.997849,137.997025 
	C204.997849,137.997025 205.000610,137.999817 205.026855,138.330658 
	C205.817123,139.329361 206.581131,139.997238 207.345139,140.665115 
	C207.345139,140.665115 207.048660,140.939743 207.235382,141.107971 
	C208.085968,141.662628 208.749863,142.049042 209.413742,142.435471 
	C209.413742,142.435471 209.470993,142.475174 209.547638,142.843262 
	C211.010284,144.033356 212.300537,145.231262 213.798721,145.612930 
	C220.633453,147.354019 227.526611,148.865860 234.398758,150.460114 
	C234.398758,150.460114 234.457977,150.501297 234.475769,150.898132 
	C234.941360,152.359512 235.306976,153.468033 235.849869,154.481628 
	C240.351089,162.885498 239.030472,167.729950 230.341858,174.518356 
	C226.305161,177.672211 217.986923,176.522903 213.148254,172.202866 
	C212.201675,171.357727 211.073700,170.715744 210.029388,169.980072 
	C210.029388,169.980072 209.996964,169.995895 209.967468,169.603058 
	C209.133240,166.791901 208.328506,164.373596 207.523773,161.955276 
	C207.411179,159.599869 207.298584,157.244446 207.375122,154.216919 
	C207.159988,152.660828 206.755692,151.776855 206.351395,150.892883 
	C206.351395,150.892883 206.114456,150.732452 206.146027,150.391129 
	C205.967529,149.729233 205.757477,149.408676 205.547440,149.088104 
	C200.374863,141.149399 193.356323,137.235443 183.657410,138.726120 
	C181.755859,139.018372 179.723679,138.460907 177.272690,137.804230 
	C173.409195,135.365784 170.024780,133.418457 166.640350,131.471130 
	C166.640350,131.471130 166.578629,131.430374 166.510071,131.128571 
	C166.149597,130.630966 165.857681,130.435181 165.565750,130.239395 
	C165.565750,130.239395 165.192413,129.958755 165.176926,129.670151 
	C165.161438,129.381546 164.926575,129.196228 164.926575,129.196228 
	C164.742935,128.949448 164.559280,128.702652 164.270294,127.631012 
	C163.530197,124.846909 162.895401,122.887642 162.260620,120.928375 
	C162.219131,120.503250 162.177628,120.078125 162.425690,119.068954 
	C164.017548,114.554268 165.319839,110.623634 166.622131,106.692993 
	C166.622116,106.692993 166.705933,106.711296 166.899353,106.619492 
	C167.356094,106.311432 167.416458,106.048500 167.273865,105.738884 
	C167.273865,105.738884 167.319794,105.462585 167.730148,105.412949 
	C168.430328,104.916588 168.720154,104.469856 169.009979,104.023132 
	C169.009979,104.023132 169.000732,103.997009 169.360962,103.994728 
	C170.671783,103.199089 171.622360,102.405724 172.572937,101.612366 
	C172.572937,101.612366 172.613495,101.581429 173.021545,101.636635 
	C175.642883,100.896225 177.856186,100.100601 180.069489,99.304977 
	C182.134048,99.332748 184.198608,99.360512 186.881073,99.687111 
	C188.293411,99.897141 189.087830,99.808334 189.882263,99.719528 
z"/>
<path fill="#FFE98A" opacity="1.000000" stroke="none" 
	d="
M124.685707,55.798286 
	C124.685707,55.798286 124.871155,55.702797 125.027771,56.148392 
	C130.399200,57.732475 135.626846,58.815933 140.824509,60.027946 
	C144.557846,60.898506 148.175934,61.556896 151.067398,58.372589 
	C152.720810,59.319286 154.302109,60.346947 155.903961,60.380013 
	C157.593979,60.414902 159.303604,59.500828 160.991699,59.382484 
	C160.515701,60.971909 160.084961,62.193741 159.584076,63.386112 
	C157.405914,68.571281 155.125351,73.745941 159.220764,79.073494 
	C159.174728,79.806984 159.128677,80.540466 158.673248,81.701317 
	C154.106781,83.669586 155.004333,87.090973 155.236938,90.264984 
	C155.236938,90.264984 155.210526,90.177650 155.001480,90.287743 
	C154.618927,90.709816 154.445435,91.021797 154.271942,91.333778 
	C154.271942,91.333778 154.167648,91.168159 153.859070,91.146393 
	C152.116302,89.820366 150.682129,88.516106 148.417786,86.456886 
	C148.882538,89.065567 149.170593,90.682381 149.384369,91.882278 
	C144.371872,96.551193 139.298264,97.444695 133.620499,93.537140 
	C132.471176,92.746162 130.415192,93.272575 128.777206,93.191643 
	C128.777206,93.191643 128.858246,93.162209 128.744812,92.958130 
	C128.325943,92.573135 128.020523,92.392220 127.715103,92.211311 
	C127.715103,92.211311 127.820297,92.171822 127.810837,91.855988 
	C123.204903,84.925903 121.218719,77.689148 121.889015,69.577332 
	C122.112793,66.869293 121.353897,63.964939 120.526291,61.311886 
	C119.258438,57.247627 120.759544,55.720314 124.685707,55.798286 
M126.375748,62.274040 
	C125.987465,61.950405 125.612381,61.606274 125.190567,61.334743 
	C125.148254,61.307499 124.822578,61.720451 124.628403,61.929115 
	C125.086288,62.168571 125.544174,62.408031 126.375748,62.274040 
z"/>
<path fill="#F6E38D" opacity="1.000000" stroke="none" 
	d="
M124.400307,55.543396 
	C120.759544,55.720314 119.258438,57.247627 120.526291,61.311886 
	C121.353897,63.964939 122.112793,66.869293 121.889015,69.577332 
	C121.218719,77.689148 123.204903,84.925903 127.786697,91.906715 
	C121.678429,88.151016 120.387825,82.102516 120.840546,75.279663 
	C121.615768,63.596333 116.572739,55.531315 106.450409,52.675873 
	C103.800323,51.928303 100.868759,51.836605 98.088051,51.954208 
	C87.062798,52.420494 78.521019,40.324745 82.968002,29.328194 
	C85.302727,23.554857 91.722298,19.781765 98.806038,19.969656 
	C104.732208,20.126842 111.093475,24.918409 112.743950,30.999973 
	C113.602631,34.164036 113.564766,37.562595 114.061661,40.835526 
	C115.040123,47.280296 117.257584,52.911083 124.400307,55.543396 
z"/>
<path fill="#FFE98A" opacity="1.000000" stroke="none" 
	d="
M167.239548,42.010822 
	C167.176285,41.556908 167.113037,41.102993 167.486343,40.240219 
	C169.614059,38.551750 171.305191,37.272137 172.984879,36.372559 
	C173.216553,38.668423 170.130402,41.874065 175.332092,41.910999 
	C177.605804,40.181656 177.447662,38.898479 175.002441,37.617577 
	C174.332306,35.819061 173.663406,34.410889 172.709320,32.834335 
	C170.398117,29.952816 171.710449,28.178535 173.871506,26.273983 
	C174.781494,25.472000 174.901367,23.773455 175.380417,22.482464 
	C175.380417,22.482466 175.457413,22.417170 175.949768,22.557562 
	C179.359726,23.695522 182.277344,24.693089 185.340958,25.740572 
	C185.258865,25.180367 185.063370,23.846331 184.858475,22.448076 
	C190.709213,23.018482 194.639313,25.169785 194.529739,31.534666 
	C194.522888,31.931957 194.895813,32.547653 195.251328,32.707474 
	C200.447479,35.043518 197.590363,38.217976 196.183624,41.245308 
	C195.055038,43.674061 193.927643,46.103378 192.799698,48.532440 
	C192.799698,48.532440 192.700653,48.738216 192.195862,48.577957 
	C182.298660,50.187733 172.906250,51.957767 163.267761,53.774170 
	C164.154877,52.530357 165.397324,51.341991 165.949524,49.890945 
	C166.899094,47.395725 170.192307,45.165119 167.239548,42.010822 
M174.273621,46.624191 
	C173.950073,47.012413 173.606003,47.387432 173.334579,47.809196 
	C173.307312,47.851570 173.720154,48.177151 173.928741,48.371300 
	C174.168121,47.913486 174.407501,47.455673 174.273621,46.624191 
M193.754990,38.455055 
	C193.942169,38.187698 194.129364,37.920341 194.316544,37.652985 
	C194.038788,37.824379 193.761032,37.995773 193.754990,38.455055 
z"/>
<path fill="#F7E38C" opacity="1.000000" stroke="none" 
	d="
M179.032745,88.355499 
	C171.658325,84.493896 168.694901,78.223732 170.945251,71.935402 
	C173.152023,65.768936 179.749893,62.106133 186.078812,63.534039 
	C192.874298,65.067207 197.216309,71.608765 196.007294,78.492035 
	C194.691742,85.981972 188.243286,89.861244 179.032745,88.355499 
z"/>
<path fill="#F7E38C" opacity="1.000000" stroke="none" 
	d="
M189.031921,173.197174 
	C181.447922,175.800156 175.572449,174.006760 172.212738,168.344147 
	C168.980774,162.896835 170.042114,156.260818 174.819641,152.044632 
	C179.276260,148.111633 186.084763,147.830307 190.977753,151.376953 
	C198.520035,156.843918 197.742508,167.280380 189.031921,173.197174 
z"/>
<path fill="#F6E48C" opacity="1.000000" stroke="none" 
	d="
M89.183342,85.875275 
	C84.685844,80.438950 83.649551,74.668686 86.450600,70.018135 
	C89.136589,65.558640 93.212624,63.116325 98.519234,63.477211 
	C104.030334,63.852001 107.861366,66.835670 109.795517,71.978104 
	C111.647636,76.902428 110.213699,82.235443 106.403526,85.668396 
	C102.387802,89.286575 96.914894,90.090797 91.990768,87.727402 
	C91.098625,87.299202 90.308746,86.657928 89.183342,85.875275 
z"/>
<path fill="#F7E48D" opacity="1.000000" stroke="none" 
	d="
M86.949921,168.789200 
	C83.948914,163.054382 84.099945,157.796844 88.201416,153.177658 
	C91.695938,149.242035 96.351753,147.979065 101.381996,149.505569 
	C106.627098,151.097275 109.624695,154.906982 110.419991,160.348175 
	C111.198784,165.676422 108.248032,170.897491 103.147278,173.353989 
	C97.680901,175.986572 92.370186,174.578232 86.949921,168.789200 
z"/>
<path fill="#FDE889" opacity="1.000000" stroke="none" 
	d="
M103.559906,186.941711 
	C105.720467,187.586365 107.487549,188.281189 109.847580,189.177094 
	C110.627022,189.918777 110.813515,190.459396 111.036118,191.289673 
	C111.381546,192.053024 111.690865,192.526688 111.999916,193.450302 
	C111.753212,197.842682 113.413811,202.391830 108.363213,204.802246 
	C107.811752,205.065430 107.552490,206.215363 107.404938,207.000473 
	C106.899132,209.691727 106.503441,212.403656 106.065765,215.107712 
	C106.065765,215.107712 106.045975,215.019318 105.694794,215.027039 
	C104.130028,214.869354 102.916451,214.703949 101.547714,214.517395 
	C102.490669,212.739410 103.227348,211.350357 103.964035,209.961288 
	C103.570015,209.618118 103.175987,209.274933 102.781967,208.931763 
	C100.129158,211.082230 97.476349,213.232697 95.071655,215.182037 
	C94.180183,212.799026 93.496269,210.970810 92.964203,209.548523 
	C90.223793,211.169037 88.497063,212.190125 86.770332,213.211212 
	C86.770332,213.211212 86.863823,213.172989 86.740402,212.971512 
	C86.315384,212.582275 86.013771,212.394516 85.712166,212.206757 
	C85.712166,212.206757 85.822807,212.192596 85.716675,211.989594 
	C85.315460,211.583328 85.020378,211.380051 84.725304,211.176773 
	C84.725304,211.176773 84.822906,211.139984 84.859436,210.761780 
	C84.759369,208.924393 85.015663,207.276047 84.419670,206.037994 
	C81.492867,199.958038 85.537071,196.338303 88.312248,192.377396 
	C90.754654,192.467422 93.677834,196.347931 94.217941,190.813583 
	C94.625740,190.081238 94.812271,189.539078 95.196259,188.892365 
	C96.262474,189.525604 97.131241,190.263412 98.019836,191.366425 
	C98.733154,192.439606 99.364189,193.238708 100.166245,193.788193 
	C100.354721,193.917358 101.120712,193.203568 101.621025,192.877579 
	C101.080177,192.251114 100.539330,191.624634 99.998848,190.614563 
	C100.001602,189.208054 100.003983,188.185150 100.006371,187.162231 
	C101.059723,187.105453 102.113075,187.048676 103.559906,186.941711 
M97.224022,198.581406 
	C93.000244,200.159546 95.303719,201.718094 97.683609,203.295258 
	C97.683609,201.907608 97.683609,200.519958 97.224022,198.581406 
z"/>
<path fill="#F7E48C" opacity="1.000000" stroke="none" 
	d="
M128.035706,122.338997 
	C127.112175,113.050049 131.547653,106.808197 139.170319,106.135468 
	C146.464233,105.491760 152.537674,110.524956 153.300034,117.845070 
	C153.949127,124.077530 150.081268,129.658768 143.913666,131.389420 
	C137.212845,133.269684 131.504410,130.144547 128.035706,122.338997 
z"/>
<path fill="#FEE989" opacity="1.000000" stroke="none" 
	d="
M212.040161,92.141357 
	C208.961578,87.176071 209.360291,83.533821 213.784882,78.667625 
	C217.859818,74.185974 214.374756,70.854485 211.970917,67.064964 
	C212.315750,66.084221 212.959381,65.311516 214.135742,64.267181 
	C215.756485,63.296516 216.844528,62.597473 217.932571,61.898430 
	C217.932571,61.898430 217.988907,61.980305 218.338501,61.975296 
	C219.867676,62.608822 221.001312,63.628288 222.239929,63.777760 
	C223.456161,63.924522 224.779068,63.187275 226.424835,62.850700 
	C227.533752,62.892174 228.272980,62.920918 229.008759,63.335007 
	C229.181854,65.003319 229.358429,66.286285 229.534988,67.569260 
	C229.904404,67.598495 230.273834,67.627724 230.643250,67.656960 
	C231.107956,66.732895 231.572662,65.808823 232.415451,64.870819 
	C233.294388,64.799164 233.795227,64.741432 234.296082,64.683701 
	C234.296082,64.683693 234.021225,64.962456 234.215897,65.176323 
	C235.319290,67.142433 236.500504,68.809525 237.080200,70.664589 
	C238.297943,74.561501 239.553925,78.590096 235.999603,81.752808 
	C234.909378,77.232864 233.888504,73.085175 232.858994,68.902313 
	C230.173248,70.687943 228.519089,73.207275 229.796219,77.127701 
	C229.337723,77.457596 229.140106,77.706329 228.709808,77.964050 
	C227.946259,77.617828 227.472519,77.307999 226.996841,76.619537 
	C226.576355,74.955490 226.157806,73.670067 225.739273,72.384644 
	C225.264496,72.455757 224.789719,72.526871 224.314941,72.597984 
	C224.210373,74.064514 224.105804,75.531036 223.874130,77.201935 
	C223.542984,77.661858 223.293365,77.860001 222.685791,77.867081 
	C217.441620,77.050247 219.586899,80.897491 218.633148,83.000053 
	C217.012344,83.474480 215.761765,83.946716 214.511169,84.418945 
	C215.008301,85.279808 215.505432,86.140671 216.072342,87.315292 
	C217.094254,87.419983 218.046387,87.210915 219.172913,86.708694 
	C220.565872,85.944199 221.784470,85.472862 223.038498,85.290833 
	C223.382751,86.053101 223.691544,86.526062 224.000214,87.395340 
	C223.999619,88.846184 223.999161,89.900688 223.556946,90.987503 
	C219.423508,91.393654 215.731827,91.767509 212.040161,92.141357 
z"/>
<path fill="#F6E38D" opacity="1.000000" stroke="none" 
	d="
M167.095871,42.345886 
	C170.192307,45.165119 166.899094,47.395725 165.949524,49.890945 
	C165.397324,51.341991 164.154877,52.530357 163.267761,53.774170 
	C172.906250,51.957767 182.298660,50.187733 192.082977,48.594994 
	C188.786606,49.825035 185.125717,51.659130 181.405167,51.789429 
	C168.317810,52.247746 160.904175,58.989597 159.156937,72.705460 
	C158.909393,74.648659 159.667389,76.719963 159.590363,78.902733 
	C155.125351,73.745941 157.405914,68.571281 159.584076,63.386112 
	C160.084961,62.193741 160.515701,60.971909 160.977478,59.033390 
	C160.078339,57.827442 159.155350,56.910664 158.287399,56.960125 
	C155.847580,57.099163 153.430420,57.636112 151.004333,58.016151 
	C148.175934,61.556896 144.557846,60.898506 140.824509,60.027946 
	C135.626846,58.815933 130.399200,57.732475 125.095596,56.227623 
	C134.153473,57.678322 143.255646,58.262215 152.560028,56.487961 
	C160.610504,54.952816 164.990662,50.238205 167.095871,42.345886 
z"/>
<path fill="#F6E38D" opacity="1.000000" stroke="none" 
	d="
M193.100922,48.411274 
	C193.927643,46.103378 195.055038,43.674061 196.183624,41.245308 
	C197.590363,38.217976 200.447479,35.043518 195.251328,32.707474 
	C194.895813,32.547653 194.522888,31.931957 194.529739,31.534666 
	C194.639313,25.169785 190.709213,23.018482 184.858475,22.448076 
	C185.063370,23.846331 185.258865,25.180367 185.340958,25.740572 
	C182.277344,24.693089 179.359726,23.695522 175.999420,22.548443 
	C181.511642,18.571531 188.756989,19.149860 193.771210,23.852798 
	C199.565460,29.287380 200.965530,37.140202 197.135574,43.692097 
	C196.150864,45.376614 194.660324,46.765438 193.100922,48.411274 
z"/>
<path fill="#D9CC8C" opacity="1.000000" stroke="none" 
	d="
M210.077637,170.318024 
	C211.073700,170.715744 212.201675,171.357727 213.148254,172.202866 
	C217.986923,176.522903 226.305161,177.672211 230.341858,174.518356 
	C239.030472,167.729950 240.351089,162.885498 235.849869,154.481628 
	C235.306976,153.468033 234.941360,152.359512 234.500183,150.924683 
	C241.819138,158.589066 241.555527,167.649155 233.493301,174.356796 
	C227.306305,179.504257 216.783188,180.201828 210.077637,170.318024 
z"/>
<path fill="#FAE68D" opacity="1.000000" stroke="none" 
	d="
M86.917557,213.531158 
	C88.497063,212.190125 90.223793,211.169037 92.964203,209.548523 
	C93.496269,210.970810 94.180183,212.799026 95.071655,215.182037 
	C97.476349,213.232697 100.129158,211.082230 102.781967,208.931763 
	C103.175987,209.274933 103.570015,209.618118 103.964035,209.961288 
	C103.227348,211.350357 102.490669,212.739410 101.547714,214.517395 
	C102.916451,214.703949 104.130028,214.869354 105.728653,215.057114 
	C99.698219,219.557953 93.099205,219.132431 86.917557,213.531158 
z"/>
<path fill="#FAE68D" opacity="1.000000" stroke="none" 
	d="
M98.000000,191.001221 
	C97.131241,190.263412 96.262474,189.525604 94.844986,188.894836 
	C93.392960,189.260559 92.489662,189.519257 91.586372,189.777954 
	C91.626137,190.062378 91.665901,190.346817 91.705673,190.631241 
	C92.469337,190.755417 93.233002,190.879608 93.996666,191.003784 
	C93.677834,196.347931 90.754654,192.467422 88.312248,192.377396 
	C85.537071,196.338303 81.492867,199.958038 84.419670,206.037994 
	C85.015663,207.276047 84.759369,208.924393 84.840897,210.810547 
	C80.689827,206.190964 80.773415,200.582916 83.263489,195.077744 
	C86.307259,188.348434 91.972755,186.028397 99.568787,187.087524 
	C100.003983,188.185150 100.001602,189.208054 99.665787,190.615097 
	C98.888237,190.999893 98.444122,191.000565 98.000000,191.001221 
z"/>
<path fill="#F6E38D" opacity="1.000000" stroke="none" 
	d="
M128.957947,93.494690 
	C130.415192,93.272575 132.471176,92.746162 133.620499,93.537140 
	C139.298264,97.444695 144.371872,96.551193 149.384369,91.882278 
	C149.170593,90.682381 148.882538,89.065567 148.417786,86.456886 
	C150.682129,88.516106 152.116302,89.820366 153.935043,91.208076 
	C147.812302,98.520226 138.423462,99.454681 128.957947,93.494690 
z"/>
<path fill="#F6E38D" opacity="1.000000" stroke="none" 
	d="
M175.064255,22.583834 
	C174.901367,23.773455 174.781494,25.472000 173.871506,26.273983 
	C171.710449,28.178535 170.398117,29.952816 172.710068,33.208099 
	C172.996109,34.497677 172.996231,35.245098 172.996338,35.992523 
	C171.305191,37.272137 169.614059,38.551750 167.619629,39.923050 
	C166.743881,32.930367 168.399689,26.801579 175.064255,22.583834 
z"/>
<path fill="#FAE68D" opacity="1.000000" stroke="none" 
	d="
M106.406937,215.043823 
	C106.503441,212.403656 106.899132,209.691727 107.404938,207.000473 
	C107.552490,206.215363 107.811752,205.065430 108.363213,204.802246 
	C113.413811,202.391830 111.753212,197.842682 112.220627,193.260880 
	C112.627930,192.080994 112.814270,191.540497 113.181580,190.781815 
	C113.878014,190.347748 114.393471,190.131882 114.908928,189.916016 
	C114.908928,189.916016 115.094818,190.085098 115.188164,190.169189 
	C114.646851,194.764984 114.638939,199.490082 113.196472,203.726761 
	C111.828720,207.743973 108.957924,211.249435 106.406937,215.043823 
z"/>
<path fill="#D9CC8C" opacity="1.000000" stroke="none" 
	d="
M203.332672,132.662659 
	C202.286041,129.315704 200.189880,125.481766 200.481903,121.839294 
	C201.064133,114.576736 202.957809,107.419327 204.660294,100.110649 
	C201.616852,110.610672 200.900299,121.355270 203.332672,132.662659 
z"/>
<path fill="#D9CC8C" opacity="1.000000" stroke="none" 
	d="
M236.068985,82.125069 
	C239.553925,78.590096 238.297943,74.561501 237.080200,70.664589 
	C236.500504,68.809525 235.319290,67.142433 234.345291,65.029388 
	C242.731354,72.194458 241.274246,83.647682 230.592133,90.148712 
	C230.147568,90.135544 229.899902,89.865334 230.116547,89.619598 
	C232.245132,86.957596 234.157059,84.541328 236.068985,82.125069 
z"/>
<path fill="#D9CC8C" opacity="1.000000" stroke="none" 
	d="
M234.234894,150.179092 
	C227.526611,148.865860 220.633453,147.354019 213.798721,145.612930 
	C212.300537,145.231262 211.010284,144.033356 209.574219,142.865784 
	C214.612396,143.663956 219.760132,144.599045 224.767456,146.026642 
	C227.975769,146.941330 230.976974,148.582550 234.234894,150.179092 
z"/>
<path fill="#D9CC8C" opacity="1.000000" stroke="none" 
	d="
M211.839417,92.368652 
	C215.731827,91.767509 219.423508,91.393654 223.912796,90.868561 
	C226.440247,90.433327 228.170074,90.149330 229.899902,89.865341 
	C229.899902,89.865334 230.147568,90.135544 230.272293,90.269836 
	C228.203415,90.959518 226.020462,91.562073 223.813950,92.060272 
	C219.477158,93.039459 215.127258,93.960655 210.396545,94.964447 
	C210.553101,94.214020 211.095871,93.404984 211.839417,92.368652 
z"/>
<path fill="#D9CC8C" opacity="1.000000" stroke="none" 
	d="
M234.162933,64.371117 
	C233.795227,64.741432 233.294388,64.799164 232.250427,64.604782 
	C230.808960,63.884995 229.910583,63.417324 229.012207,62.949657 
	C228.272980,62.920918 227.533752,62.892174 226.271942,62.613457 
	C224.944885,61.919018 224.140427,61.474556 223.335968,61.030098 
	C226.900574,62.039577 230.465195,63.049057 234.162933,64.371117 
z"/>
<path fill="#F6E38D" opacity="1.000000" stroke="none" 
	d="
M155.540207,90.117386 
	C155.004333,87.090973 154.106781,83.669586 158.629700,82.068726 
	C157.944839,84.662453 156.894165,87.316116 155.540207,90.117386 
z"/>
<path fill="#D0C281" opacity="1.000000" stroke="none" 
	d="
M166.767365,131.776550 
	C170.024780,133.418457 173.409195,135.365784 176.904175,137.629547 
	C173.641281,135.991318 170.267822,134.036652 166.767365,131.776550 
z"/>
<path fill="#D0C281" opacity="1.000000" stroke="none" 
	d="
M166.327652,106.860237 
	C165.319839,110.623634 164.017548,114.554268 162.483917,118.752441 
	C163.512787,115.022476 164.772980,111.024971 166.327652,106.860237 
z"/>
<path fill="#FAE68C" opacity="1.000000" stroke="none" 
	d="
M222.895538,61.004932 
	C224.140427,61.474556 224.944885,61.919018 225.902252,62.600723 
	C224.779068,63.187275 223.456161,63.924522 222.239929,63.777760 
	C221.001312,63.628288 219.867676,62.608822 218.296555,61.948647 
	C219.421722,61.611259 220.938400,61.295513 222.895538,61.004932 
z"/>
<path fill="#D0C281" opacity="1.000000" stroke="none" 
	d="
M179.695663,99.232819 
	C177.856186,100.100601 175.642883,100.896225 173.040085,101.619118 
	C174.874344,100.751152 177.098083,99.955910 179.695663,99.232819 
z"/>
<path fill="#D9CC8C" opacity="1.000000" stroke="none" 
	d="
M207.410858,162.319275 
	C208.328506,164.373596 209.133240,166.791901 209.980331,169.589233 
	C209.114456,167.539932 208.206192,165.111618 207.410858,162.319275 
z"/>
<path fill="#D0C281" opacity="1.000000" stroke="none" 
	d="
M162.175903,121.293449 
	C162.895401,122.887642 163.530197,124.846909 164.144135,127.187164 
	C163.445908,125.598274 162.768539,123.628403 162.175903,121.293449 
z"/>
<path fill="#D9CC8C" opacity="1.000000" stroke="none" 
	d="
M205.289032,99.851059 
	C206.450226,98.370422 207.895691,96.728127 209.682678,95.048965 
	C208.540543,96.571198 207.056900,98.130302 205.289032,99.851059 
z"/>
<path fill="#FEE989" opacity="1.000000" stroke="none" 
	d="
M207.858871,73.318436 
	C209.147186,72.857239 210.334183,72.715477 211.521179,72.573723 
	C211.642120,72.987663 211.763062,73.401611 211.884018,73.815552 
	C210.800339,74.201118 209.716660,74.586685 208.256607,74.964371 
	C207.839340,74.516953 207.798447,74.077415 207.858871,73.318436 
z"/>
<path fill="#D0C281" opacity="1.000000" stroke="none" 
	d="
M196.436127,97.639648 
	C195.379852,98.230164 193.967880,98.902458 192.270050,99.400032 
	C193.349609,98.724014 194.715027,98.222717 196.436127,97.639648 
z"/>
<path fill="#FAE68C" opacity="1.000000" stroke="none" 
	d="
M217.560272,61.903782 
	C216.844528,62.597473 215.756485,63.296516 214.288940,63.998299 
	C215.002274,63.303738 216.095139,62.606438 217.560272,61.903782 
z"/>
<path fill="#D0C281" opacity="1.000000" stroke="none" 
	d="
M172.268250,101.697441 
	C171.622360,102.405724 170.671783,103.199089 169.372894,104.002289 
	C170.004257,103.268929 170.983902,102.525726 172.268250,101.697441 
z"/>
<path fill="#D9CC8C" opacity="1.000000" stroke="none" 
	d="
M204.980789,137.676605 
	C204.515594,137.156311 204.033356,136.315613 203.751892,135.252823 
	C204.289673,135.805893 204.626709,136.581024 204.980789,137.676605 
z"/>
<path fill="#D9CC8C" opacity="1.000000" stroke="none" 
	d="
M207.238831,140.380249 
	C206.581131,139.997238 205.817123,139.329361 205.027466,138.332825 
	C205.712051,138.701248 206.422287,139.398331 207.238831,140.380249 
z"/>
<path fill="#D9CC8C" opacity="1.000000" stroke="none" 
	d="
M206.367828,151.217026 
	C206.755692,151.776855 207.159988,152.660828 207.391510,153.773438 
	C206.940582,153.181763 206.662415,152.361465 206.367828,151.217026 
z"/>
<path fill="#D0C281" opacity="1.000000" stroke="none" 
	d="
M200.653030,94.960686 
	C200.194534,95.588371 199.432220,96.281021 198.351074,96.998138 
	C198.804550,96.356949 199.576874,95.691299 200.653030,94.960686 
z"/>
<path fill="#D9CC8C" opacity="1.000000" stroke="none" 
	d="
M209.265320,142.195602 
	C208.749863,142.049042 208.085968,141.662628 207.373489,140.960464 
	C207.922226,141.081726 208.519547,141.518738 209.265320,142.195602 
z"/>
<path fill="#D0C281" opacity="1.000000" stroke="none" 
	d="
M189.543762,99.608353 
	C189.087830,99.808334 188.293411,99.897141 187.302551,99.829597 
	C187.805832,99.614555 188.505539,99.555862 189.543762,99.608353 
z"/>
<path fill="#D0C281" opacity="1.000000" stroke="none" 
	d="
M204.780319,90.305557 
	C204.624298,90.837753 204.193451,91.417892 203.482590,92.045776 
	C203.636887,91.513512 204.071198,90.933510 204.780319,90.305557 
z"/>
<path fill="#D9CC8C" opacity="1.000000" stroke="none" 
	d="
M205.520599,149.288223 
	C205.757477,149.408676 205.967529,149.729233 206.163803,150.249176 
	C205.931274,150.128464 205.712509,149.808411 205.520599,149.288223 
z"/>
<path fill="#D0C281" opacity="1.000000" stroke="none" 
	d="
M168.752319,104.067879 
	C168.720154,104.469856 168.430328,104.916588 167.860474,105.361702 
	C167.885193,104.944275 168.189926,104.528458 168.752319,104.067879 
z"/>
<path fill="#D0C281" opacity="1.000000" stroke="none" 
	d="
M202.851181,92.347305 
	C202.869583,92.713531 202.638107,93.206947 202.156860,93.834686 
	C202.138504,93.470833 202.369888,92.972664 202.851181,92.347305 
z"/>
<path fill="#D0C281" opacity="1.000000" stroke="none" 
	d="
M165.630539,130.498322 
	C165.857681,130.435181 166.149597,130.630966 166.490341,131.097290 
	C166.257874,131.164307 165.976608,130.960770 165.630539,130.498322 
z"/>
<path fill="#D0C281" opacity="1.000000" stroke="none" 
	d="
M164.821854,129.251801 
	C164.926575,129.196228 165.161438,129.381546 165.105591,129.447784 
	C165.049759,129.514023 164.717133,129.307373 164.821854,129.251801 
z"/>
<path fill="#D0C281" opacity="1.000000" stroke="none" 
	d="
M167.094391,105.824074 
	C167.416458,106.048500 167.356094,106.311432 166.881790,106.580353 
	C166.613846,106.345116 166.695221,106.103859 167.094391,105.824074 
z"/>
<path fill="#F6E38D" opacity="1.000000" stroke="none" 
	d="
M127.808121,92.475922 
	C128.020523,92.392220 128.325943,92.573135 128.745361,93.001236 
	C128.539948,93.079132 128.220551,92.909836 127.808121,92.475922 
z"/>
<path fill="#F6E38D" opacity="1.000000" stroke="none" 
	d="
M154.528946,91.233139 
	C154.445435,91.021797 154.618927,90.709816 155.046814,90.292801 
	C155.129440,90.502678 154.957687,90.817589 154.528946,91.233139 
z"/>
<path fill="#FAE68D" opacity="1.000000" stroke="none" 
	d="
M84.813347,211.440002 
	C85.020378,211.380051 85.315460,211.583328 85.706360,212.044403 
	C85.501923,212.102554 85.201653,211.902893 84.813347,211.440002 
z"/>
<path fill="#FAE68D" opacity="1.000000" stroke="none" 
	d="
M85.801743,212.469330 
	C86.013771,212.394516 86.315384,212.582275 86.725914,213.019897 
	C86.520332,213.090469 86.205826,212.911194 85.801743,212.469330 
z"/>
<path fill="#FEE988" opacity="1.000000" stroke="none" 
	d="
M114.918747,189.568298 
	C114.393471,190.131882 113.878014,190.347748 112.848145,190.781815 
	C111.889153,191.000000 111.444572,191.000000 111.000000,191.000000 
	C110.813515,190.459396 110.627022,189.918777 110.219696,189.188690 
	C110.359650,187.775162 110.720421,186.551086 111.495506,183.921326 
	C113.181419,186.523697 114.054993,187.872147 114.918747,189.568298 
z"/>
<path fill="#FEEA88" opacity="1.000000" stroke="none" 
	d="
M151.067398,58.372589 
	C153.430420,57.636112 155.847580,57.099163 158.287399,56.960125 
	C159.155350,56.910664 160.078339,57.827442 160.990433,58.652241 
	C159.303604,59.500828 157.593979,60.414902 155.903961,60.380013 
	C154.302109,60.346947 152.720810,59.319286 151.067398,58.372589 
z"/>
<path fill="#F6E38D" opacity="1.000000" stroke="none" 
	d="
M126.188904,62.460766 
	C125.544174,62.408031 125.086288,62.168571 124.628403,61.929115 
	C124.822578,61.720451 125.148254,61.307499 125.190567,61.334743 
	C125.612381,61.606274 125.987465,61.950405 126.188904,62.460766 
z"/>
<path fill="#FEEA88" opacity="1.000000" stroke="none" 
	d="
M172.984879,36.372562 
	C172.996231,35.245098 172.996109,34.497677 172.995239,33.376484 
	C173.663406,34.410889 174.332306,35.819061 175.002441,38.016182 
	C175.003998,39.868656 175.004333,40.932182 175.004684,41.995708 
	C170.130402,41.874065 173.216553,38.668423 172.984879,36.372562 
z"/>
<path fill="#F6E38D" opacity="1.000000" stroke="none" 
	d="
M175.332092,41.910999 
	C175.004333,40.932182 175.003998,39.868656 175.003662,38.406525 
	C177.447662,38.898479 177.605804,40.181656 175.332092,41.910999 
z"/>
<path fill="#F6E38D" opacity="1.000000" stroke="none" 
	d="
M174.460251,46.811024 
	C174.407501,47.455673 174.168121,47.913486 173.928741,48.371300 
	C173.720154,48.177151 173.307312,47.851570 173.334579,47.809196 
	C173.606003,47.387432 173.950073,47.012413 174.460251,46.811024 
z"/>
<path fill="#F6E38D" opacity="1.000000" stroke="none" 
	d="
M193.619141,38.311111 
	C193.761032,37.995773 194.038788,37.824379 194.316544,37.652985 
	C194.129364,37.920341 193.942169,38.187698 193.619141,38.311111 
z"/>
<path fill="#FAE68D" opacity="1.000000" stroke="none" 
	d="
M97.453812,198.856857 
	C97.683609,200.519958 97.683609,201.907608 97.683609,203.295258 
	C95.303719,201.718094 93.000244,200.159546 97.453812,198.856857 
z"/>
<path fill="#FEE988" opacity="1.000000" stroke="none" 
	d="
M98.019836,191.366425 
	C98.444122,191.000565 98.888237,190.999893 99.665421,190.998688 
	C100.539330,191.624634 101.080177,192.251114 101.621025,192.877579 
	C101.120712,193.203568 100.354721,193.917358 100.166245,193.788193 
	C99.364189,193.238708 98.733154,192.439606 98.019836,191.366425 
z"/>
<path fill="#FEE988" opacity="1.000000" stroke="none" 
	d="
M94.217941,190.813583 
	C93.233002,190.879608 92.469337,190.755417 91.705673,190.631241 
	C91.665901,190.346817 91.626137,190.062378 91.586372,189.777954 
	C92.489662,189.519257 93.392960,189.260559 94.647522,188.999405 
	C94.812271,189.539078 94.625740,190.081238 94.217941,190.813583 
z"/>
<path fill="#FEE988" opacity="1.000000" stroke="none" 
	d="
M111.036118,191.289673 
	C111.444572,191.000000 111.889153,191.000000 112.667160,191.000000 
	C112.814270,191.540497 112.627930,192.080994 112.220886,192.810913 
	C111.690865,192.526688 111.381546,192.053024 111.036118,191.289673 
z"/>
<path fill="#FEEA89" opacity="1.000000" stroke="none" 
	d="
M230.116547,89.619598 
	C228.170074,90.149330 226.440247,90.433327 224.354553,90.836258 
	C223.999161,89.900688 223.999619,88.846184 224.397003,87.395058 
	C227.577347,87.040916 230.226547,86.899879 230.758255,82.101486 
	C227.626175,83.272720 225.314606,84.137123 223.003052,85.001526 
	C221.784470,85.472862 220.565872,85.944199 218.798416,86.708496 
	C217.500549,87.001465 216.751556,87.001495 216.002563,87.001526 
	C215.505432,86.140671 215.008301,85.279808 214.511169,84.418945 
	C215.761765,83.946716 217.012344,83.474480 218.999451,82.983704 
	C220.823349,81.310341 221.910751,79.655525 222.998169,78.000717 
	C223.293365,77.860001 223.542984,77.661858 224.248810,77.202347 
	C225.499985,76.998322 226.249390,76.998245 226.998779,76.998169 
	C227.472519,77.307999 227.946259,77.617828 228.721497,78.288025 
	C229.426102,79.203537 229.829193,79.758667 230.232300,80.313797 
	C230.154861,79.209587 230.077423,78.105377 230.000000,77.001167 
	C228.519089,73.207275 230.173248,70.687943 232.858994,68.902313 
	C233.888504,73.085175 234.909378,77.232864 235.999603,81.752808 
	C234.157059,84.541328 232.245132,86.957596 230.116547,89.619598 
z"/>
<path fill="#FAE68C" opacity="1.000000" stroke="none" 
	d="
M223.038498,85.290840 
	C225.314606,84.137123 227.626175,83.272720 230.758255,82.101486 
	C230.226547,86.899879 227.577347,87.040916 224.397125,86.998734 
	C223.691544,86.526062 223.382751,86.053101 223.038498,85.290840 
z"/>
<path fill="#FAE68C" opacity="1.000000" stroke="none" 
	d="
M222.685791,77.867081 
	C221.910751,79.655525 220.823349,81.310341 219.369659,82.981506 
	C219.586899,80.897491 217.441620,77.050247 222.685791,77.867081 
z"/>
<path fill="#FAE68C" opacity="1.000000" stroke="none" 
	d="
M226.996841,76.619537 
	C226.249390,76.998245 225.499985,76.998322 224.375916,76.997978 
	C224.105804,75.531036 224.210373,74.064514 224.314941,72.597984 
	C224.789719,72.526871 225.264496,72.455757 225.739273,72.384644 
	C226.157806,73.670067 226.576355,74.955490 226.996841,76.619537 
z"/>
<path fill="#FAE68C" opacity="1.000000" stroke="none" 
	d="
M229.008759,63.335007 
	C229.910583,63.417324 230.808960,63.884995 231.872345,64.618706 
	C231.572662,65.808823 231.107956,66.732895 230.643250,67.656960 
	C230.273834,67.627724 229.904404,67.598495 229.534988,67.569260 
	C229.358429,66.286285 229.181854,65.003319 229.008759,63.335007 
z"/>
<path fill="#FAE68C" opacity="1.000000" stroke="none" 
	d="
M229.796219,77.127701 
	C230.077423,78.105377 230.154861,79.209587 230.232300,80.313797 
	C229.829193,79.758667 229.426102,79.203537 229.011307,78.324417 
	C229.140106,77.706329 229.337723,77.457596 229.796219,77.127701 
z"/>
<path fill="#FAE68C" opacity="1.000000" stroke="none" 
	d="
M216.072342,87.315292 
	C216.751556,87.001495 217.500549,87.001465 218.624023,87.001640 
	C218.046387,87.210915 217.094254,87.419983 216.072342,87.315292 
z"/>
</svg>